<svg xmlns="http://www.w3.org/2000/svg" xmlns:xlink="http://www.w3.org/1999/xlink" width="390" height="390" viewBox="0 0 390 390">
    <defs>
        <path id="a" d="M243.918 282.888l.176.063 4.577 1.817c1.52.604 2.356 2.459 1.949 4.245l-.053.206-2.487 8.779-10.223-4.059 2.487-8.78c.513-1.809 2.044-2.766 3.574-2.271zm-1.488 3.778l-.048.138-1.518 5.359 5.713 2.268 1.518-5.358c.2-.71-.052-1.488-.55-1.773l-.11-.053-3.469-1.377c-.558-.221-1.28.168-1.536.796zm29.308-3.249l5.417.722c1.604.214 2.718 1.787 2.63 3.665l-.015.218-.54 5.688h-.003l-.068.721-2.14-.285-.223-.03h-.002l.058-.609.012-.127.465-4.893c.066-.697-.412-1.455-.989-1.616l-.117-.024-4.75-.633.265-2.797zm-116 4.24l1.768 1.882-1.59 2.094-1.769-1.883 1.59-2.093zm60.29.091l.99 2.56-2.162 1.173-.99-2.561 2.162-1.172zm-59.764-42.66l7.764 8.859-5.428 6.667c-1.115 1.37-2.838 1.46-4.04.248l-.148-.158-3.475-3.966c-1.149-1.31-1.237-3.398-.237-4.804l.137-.18 5.427-6.667zm90.934 2.832l2.587 1.996.796 8.234-6.685 2.46-2.587-1.996 6.685-2.46-.796-8.234zm-90.868 1.153l-3.313 4.07c-.436.535-.492 1.36-.15 1.871l.085.113 2.634 3.005c.422.481 1.208.499 1.669.068l.1-.107 3.313-4.07-4.338-4.95zm27.283-.6l.185.003 4.83.245v.003l.613.031-.093 2.548-.01.264v.003l-.516-.026-.108-.006-4.156-.211c-.591-.03-1.197.587-1.293 1.28l-.012.14-.205 5.654-2.375-.12.234-6.448c.066-1.836 1.224-3.223 2.724-3.351l.182-.01zm-53.429 2.088l.066.204 1.58 5.41h-.001l.2.686-2.035.834-.211.087h-.002l-.17-.578-.035-.12-1.36-4.654c-.193-.66-.895-1.1-1.473-.956l-.122.04-4.518 1.851-.777-2.66 5.151-2.11c1.525-.626 3.103.226 3.707 1.966zm144.242 1.878l2.134 1.243-1.049 2.526-2.134-1.242 1.049-2.527zm-147.379-40.2l.153.15 3.61 3.794c1.196 1.256 1.354 3.342.399 4.796l-.125.178-5.192 6.926-8.064-8.472 5.19-6.927c1.067-1.423 2.785-1.598 4.029-.445zm146.247-2.691l6.41 5.305c1.318 1.09 1.663 3.09.84 4.685l-.109.197-2.766 4.685c-.916 1.553-2.652 1.98-3.983 1.018l-.158-.122-6.41-5.305 6.176-10.463zm-56.68 2.999l4.985 5.817-3.9 6.884-3.072.369 3.9-6.884-4.986-5.818 3.072-.368zm-92.167 2.483l-.097.112-3.168 4.228 4.506 4.734 3.169-4.227c.417-.557.444-1.384.085-1.878l-.09-.108-2.736-2.875c-.437-.46-1.224-.439-1.67.014zm149.437-1.566l-3.452 5.848 3.913 3.237c.518.429 1.22.362 1.59-.124l.075-.11 2.096-3.55c.337-.571.226-1.5-.211-1.97l-.098-.093-3.913-3.238zm-27.992 3.607l1.065 2.516-2.127 1.262-1.065-2.517 2.127-1.261zm-59.246.372l.332 2.788-2.356.392-.331-2.787 2.355-.393zm27.113-39.786l.175.012 7.792.791-.92 12.72-7.793-.792c-1.606-.163-2.753-1.698-2.708-3.576l.01-.218.413-5.694c.132-1.823 1.369-3.19 2.858-3.243h.173zm27.255 1.068l2.133.349.222.036h.002l-.07.607-.015.127-.568 4.878c-.081.694.38 1.466.954 1.644l.116.028 4.736.773-.324 2.788-5.4-.882c-1.6-.26-2.68-1.866-2.553-3.74l.02-.218.66-5.67h.003l.084-.72zm-117.374-1.111l-.035 8.288 6.87 1.585-2.387 2.318-6.871-1.584.034-8.289 2.389-2.318zm89.432 3.985l-.018.14-.312 4.315c-.05.697.443 1.439 1.023 1.582l.117.02 4.757.482.514-7.107-4.756-.483c-.63-.064-1.209.41-1.325 1.05zm-116.14.312l.798 2.65-2.24.947-.799-2.65 2.24-.947zm177.226.162l2.327.585-.493 2.753-2.327-.584.493-2.754zm-117.294.053l.317 2.791-2.357.376-.317-2.791 2.357-.376zm3.58-37.04l.038.21 1.371 9.117-10.615 2.239-1.372-9.117c-.282-1.878.674-3.587 2.217-4.022l.18-.044 4.753-1.002c1.578-.333 3.063.82 3.429 2.62zm83.737-5.911l9.116 6.819-4.179 7.828c-.86 1.61-2.535 2.11-3.92 1.205l-.165-.115-4.081-3.053c-1.351-1.01-1.792-3.039-1.048-4.657l.1-.2 4.177-7.827zm-181.38 3.47l6.983.597 1.793 2.977-6.983-.598-1.797 8.01-1.793-2.977 1.797-8.01zm94.252 2.683l-.119.016-3.602.76c-.579.122-1.054.873-1.026 1.57l.015.148.837 5.565 5.932-1.251-.837-5.565c-.103-.683-.573-1.197-1.082-1.241l-.118-.002zm87.873-2.266l-2.55 4.778c-.338.632-.25 1.459.178 1.876l.097.083 3.093 2.313c.497.373 1.276.198 1.651-.34l.074-.121 2.55-4.778-5.093-3.811zm-58.276 3.835l.325 2.788-2.356.386-.326-2.789 2.357-.385zm-59.456.13l.028 2.816-2.379.033-.027-2.815 2.378-.033zm90.702-39.539l.125.167 5.027 7.094-8.26 8.204-5.027-7.094c-1.033-1.457-.927-3.495.218-4.783l.148-.157 3.698-3.673c1.227-1.217 2.996-1.096 4.07.242zM70.72 105.69l2.964 12.274-7.52 2.546c-1.55.524-3.083-.427-3.605-2.2l-.056-.208-1.327-5.495c-.44-1.825.377-3.692 1.851-4.306l.173-.065 7.52-2.546zm56.099.96l2.785 1.58-6.357 3.473 1.697 8.04-2.785-1.58-1.697-8.04 6.357-3.473zm25.177 4.314l.283.513.059.107 2.272 4.125c.322.584 1.093.81 1.625.504l.11-.073 4.004-3.093 1.299 2.358-4.566 3.526c-1.35 1.042-3.052.67-3.995-.838l-.11-.186-2.64-4.794.001-.001-.335-.609 1.804-1.393.187-.144.002-.002zm63.072-1.263l-.103.09-2.803 2.783c-.448.446-.546 1.37-.233 1.958l.08.129 3.068 4.33 4.616-4.585-3.068-4.33c-.404-.57-1.091-.723-1.557-.375zm-145.98-.524l-4.59 1.554c-.607.206-1.005.892-.921 1.54l.025.139 1.006 4.164c.162.67.841 1.153 1.424 1.048l.123-.032 4.59-1.554-1.657-6.859zm205.943 1.891l1.744 1.915-1.617 2.064-1.744-1.915 1.617-2.064zm-177.755.518l.435 2.768-2.338.514-.435-2.767 2.338-.515zm29.144-40.477l.16.124 3.949 3.287c1.307 1.088 1.664 3.14.852 4.712l-.107.194L126.777 87l-8.82-7.342 4.497-7.575c.926-1.559 2.62-1.96 3.967-.975zm59.058.127l2.997.881 3.034 7.47-5.634 4.92-2.997-.882 5.634-4.92-3.034-7.47zM124.09 74.23l-.079.117-2.745 4.623 4.929 4.103 2.746-4.623c.361-.609.31-1.435-.095-1.878l-.1-.095-2.992-2.491c-.48-.4-1.266-.272-1.664.244zm31.68 1.662l1.864 1.748-1.476 2.207-1.865-1.748 1.476-2.207zm60.184.024l1.324 2.34-1.975 1.566-1.324-2.339 1.975-1.567zm-150.204.074l2.275.82-.691 2.692-2.276-.818.692-2.694zm181.708-3.547l.13.166 3.196 4.295-.001.001.405.545-1.616 1.686-.168.175-.002.002-.342-.46-.071-.096-2.75-3.695c-.389-.523-1.179-.615-1.668-.223l-.1.091-3.588 3.742-1.57-2.112 4.09-4.266c1.209-1.261 2.938-1.183 4.055.149zm28.355-36.907l3.928 4.475c1.157 1.32 1.237 3.357.218 4.783l-.14.182-3.352 4.124-.001-.001-.426.523-1.551-1.768-.161-.184-.002-.002.359-.442.074-.091 2.885-3.549c.406-.5.42-1.432.056-1.979l-.09-.118-3.445-3.926 1.648-2.027zm-115.56 2.956l.026.216.531 5.68c.177 1.887-.893 3.565-2.434 3.878l-.18.03-7.773 1.02-1.187-12.689 7.774-1.019c1.602-.21 2.98 1.032 3.244 2.884zm60.375-3.57l.687 9.224c.141 1.9-.938 3.503-2.508 3.775l-.183.025-4.808.502c-1.6.167-2.994-1.142-3.221-2.976l-.02-.205-.688-9.224 10.741-1.121zm-63.904 3.56l-.118.007-4.744.622.662 7.09 4.745-.622c.628-.082 1.118-.68 1.127-1.336l-.005-.14-.403-4.306c-.06-.649-.593-1.227-1.145-1.306l-.119-.01zM96.138 36.63l.175.07 4.53 1.997v.002l.575.254-.752 2.39-.078.247v.003l-.485-.213-.101-.045-3.899-1.718c-.552-.243-1.285.118-1.56.737l-.05.137-1.669 5.304-2.228-.981 1.902-6.049c.563-1.79 2.122-2.69 3.64-2.135zm122.334 1.344l-6.002.626.42 5.63c.055.745.549 1.338 1.102 1.363l.12-.003 3.644-.38c.588-.062 1.12-.766 1.139-1.467l-.004-.14-.419-5.63zm-92.428 2.486l1.656 2.02-1.707 1.96-1.656-2.02 1.707-1.96zm-90.44.51l2.35.435-.368 2.782-2.35-.435.368-2.782zm208.856-.328l2.274.82-.693 2.694-2.275-.82.694-2.694zM246.716.954l.156.125 6.349 5.408-6.297 10.362-6.349-5.408c-1.304-1.111-1.626-3.116-.785-4.699l.111-.195 2.82-4.64c.934-1.537 2.675-1.936 3.995-.953zM94.415.928l7.817.292-.34 12.76-7.818-.293c-1.61-.06-2.826-1.52-2.866-3.398v-.218l.153-5.712c.052-1.97 1.409-3.493 3.054-3.431zm64.703 3.274l2.274.821-1.591 6.173c-.47 1.828-1.981 2.836-3.525 2.391l-.178-.058-4.624-1.67v-.002l-.586-.212.629-2.44.065-.252V8.95l.495.178.104.038 3.978 1.437c.564.203 1.277-.21 1.52-.847l.044-.14 1.395-5.414zM33.839 1.55l6.985.552.843 8.228-2.124 2.654-.843-8.228-6.984-.552 2.123-2.654zm210.592 2.38l-.075.11-2.137 3.515c-.344.565-.243 1.497.188 1.973l.098.094 3.875 3.301 3.518-5.79-3.875-3.301c-.512-.437-1.215-.382-1.592.098zM95.008 3.773c-.631-.024-1.188.486-1.275 1.134l-.01.14-.117 4.33c-.018.699.509 1.408 1.094 1.513l.118.013 4.772.179.19-7.13-4.772-.179zm180.315 1.55l1.396 2.28-1.927 1.652-1.394-2.28 1.925-1.652zm-89.33.021l1.284 2.37-2.002 1.52-1.283-2.371 2.002-1.519zm-120.406.004l2.214 1.026-.867 2.622L64.72 7.97l.867-2.622zM.54.283h390v390L152.28 390 .54.283z"/>
        <radialGradient id="b" cx="9.602%" cy="34.232%" r="133.142%" fx="9.602%" fy="34.232%" gradientTransform="matrix(.37554 .92091 -.55625 .22395 .25 .177)">
            <stop offset="0%" stop-color="#FFF" stop-opacity=".25"/>
            <stop offset="100%" stop-color="#FFF" stop-opacity="0"/>
        </radialGradient>
    </defs>
    <g fill="none" fill-rule="evenodd">
        <mask id="c" fill="#fff">
            <use xlink:href="#a"/>
        </mask>
        <path fill="url(#b)" d="M-5.396-6.013h401.917v404.49H-5.396z" mask="url(#c)"/>
    </g>
</svg>
